<svg width="1080" height="1080" viewBox="0 0 1080 1080" fill="none" xmlns="http://www.w3.org/2000/svg">
<rect width="1080" height="1080" fill="url(#paint0_linear_5341_13595)"/>
<line x1="247" y1="997.999" x2="248.033" y2="269.997" stroke="#BAE7F1" stroke-width="4" stroke-dasharray="8 10"/>
<line x1="537" y1="903.999" x2="538.033" y2="175.997" stroke="#BAE7F1" stroke-width="4" stroke-dasharray="8 10"/>
<line x1="827" y1="809.999" x2="828.033" y2="81.9972" stroke="#BAE7F1" stroke-width="4" stroke-dasharray="8 10"/>
<g filter="url(#filter0_d_5341_13595)">
<rect x="180" y="398" width="140" height="142" rx="70" fill="white"/>
<rect x="185" y="403" width="130" height="132" rx="65" stroke="#F2F6FC" stroke-width="10"/>
<path d="M250.376 456.422C248.04 456.422 244.424 453.766 240.616 453.862C235.592 453.926 230.984 456.774 228.392 461.286C223.176 470.342 227.048 483.718 232.136 491.078C234.632 494.662 237.576 498.694 241.48 498.566C245.224 498.406 246.632 496.134 251.176 496.134C255.688 496.134 256.968 498.566 260.936 498.47C264.968 498.406 267.528 494.822 269.992 491.206C272.84 487.046 274.024 483.014 274.088 482.79C273.992 482.758 266.248 479.782 266.152 470.822C266.088 463.334 272.264 459.75 272.552 459.59C269.032 454.438 263.624 453.862 261.736 453.734C256.808 453.35 252.68 456.422 250.376 456.422ZM258.696 448.87C260.776 446.374 262.152 442.886 261.768 439.43C258.792 439.558 255.208 441.414 253.064 443.91C251.144 446.118 249.48 449.67 249.928 453.062C253.224 453.318 256.616 451.366 258.696 448.87Z" fill="black"/>
</g>
<g filter="url(#filter1_d_5341_13595)">
<rect x="471" y="696" width="140" height="140" rx="70" fill="white"/>
<rect x="476" y="701" width="130" height="130" rx="65" stroke="#F2F6FC" stroke-width="10"/>
<path d="M545.747 752.697C538.789 752.954 521.532 754.907 521.532 769.45C521.532 785.063 541.289 785.704 547.747 775.61C548.675 777.064 552.804 780.956 554.218 782.282L562.332 774.298C562.332 774.298 557.718 770.691 557.718 766.77V745.797C557.718 742.189 554.218 734.062 541.675 734.062C529.104 734.062 522.432 741.904 522.432 748.933L532.932 749.903C535.261 742.845 540.675 742.845 540.675 742.845C546.489 742.831 545.747 747.094 545.747 752.697ZM545.747 765.073C545.747 776.479 533.718 774.769 533.718 767.526C533.718 760.796 540.932 759.441 545.747 759.285V765.073ZM565.175 788.385C564.075 789.811 555.175 797.938 540.247 797.938C525.318 797.938 513.889 787.743 510.389 783.537C509.418 782.439 510.532 781.926 511.175 782.354C521.647 788.698 538.004 799.149 564.389 786.674C565.461 786.146 566.289 786.959 565.175 788.385ZM570.861 788.698C569.932 790.951 568.575 792.52 567.832 793.118C567.047 793.76 566.475 793.503 566.904 792.577C567.332 791.65 569.661 785.947 568.718 784.735C567.789 783.551 563.432 784.122 561.861 784.279C560.318 784.421 560.004 784.564 559.861 784.236C559.532 783.423 562.961 782.026 565.218 781.741C567.461 781.484 571.075 781.627 571.789 782.553C572.318 783.28 571.789 786.417 570.861 788.698Z" fill="black"/>
</g>
<g filter="url(#filter2_d_5341_13595)">
<rect x="759" y="494" width="140" height="140" rx="70" fill="white"/>
<rect x="764" y="499" width="130" height="130" rx="65" stroke="#F2F6FC" stroke-width="10"/>
<path d="M833.747 550.697C826.789 550.954 809.532 552.907 809.532 567.45C809.532 583.063 829.289 583.704 835.747 573.61C836.675 575.064 840.804 578.956 842.218 580.282L850.332 572.298C850.332 572.298 845.718 568.691 845.718 564.77V543.797C845.718 540.189 842.218 532.062 829.675 532.062C817.104 532.062 810.432 539.904 810.432 546.933L820.932 547.903C823.261 540.845 828.675 540.845 828.675 540.845C834.489 540.831 833.747 545.094 833.747 550.697ZM833.747 563.073C833.747 574.479 821.718 572.769 821.718 565.526C821.718 558.796 828.932 557.441 833.747 557.285V563.073ZM853.175 586.385C852.075 587.811 843.175 595.938 828.247 595.938C813.318 595.938 801.889 585.743 798.389 581.537C797.418 580.439 798.532 579.926 799.175 580.354C809.647 586.698 826.004 597.149 852.389 584.674C853.461 584.146 854.289 584.959 853.175 586.385ZM858.861 586.698C857.932 588.951 856.575 590.52 855.832 591.118C855.047 591.76 854.475 591.503 854.904 590.577C855.332 589.65 857.661 583.947 856.718 582.735C855.789 581.551 851.432 582.122 849.861 582.279C848.318 582.421 848.004 582.564 847.861 582.236C847.532 581.423 850.961 580.026 853.218 579.741C855.461 579.484 859.075 579.627 859.789 580.553C860.318 581.28 859.789 584.417 858.861 586.698Z" fill="black"/>
</g>
<g filter="url(#filter3_d_5341_13595)">
<rect x="759" y="36" width="140" height="140" rx="70" fill="white"/>
<rect x="764" y="41" width="130" height="130" rx="65" stroke="#F2F6FC" stroke-width="10"/>
<path d="M833.747 92.6975C826.789 92.9541 809.532 94.9074 809.532 109.45C809.532 125.063 829.289 125.704 835.747 115.61C836.675 117.064 840.804 120.956 842.218 122.282L850.332 114.298C850.332 114.298 845.718 110.691 845.718 106.77V85.7967C845.718 82.1895 842.218 74.0625 829.675 74.0625C817.104 74.0625 810.432 81.9043 810.432 88.9334L820.932 89.9029C823.261 82.8453 828.675 82.8453 828.675 82.8453C834.489 82.8311 833.747 87.0941 833.747 92.6975ZM833.747 105.073C833.747 116.479 821.718 114.769 821.718 107.526C821.718 100.796 828.932 99.4414 833.747 99.2846V105.073ZM853.175 128.385C852.075 129.811 843.175 137.938 828.247 137.938C813.318 137.938 801.889 127.743 798.389 123.537C797.418 122.439 798.532 121.926 799.175 122.354C809.647 128.698 826.004 139.149 852.389 126.674C853.461 126.146 854.289 126.959 853.175 128.385ZM858.861 128.698C857.932 130.951 856.575 132.52 855.832 133.118C855.047 133.76 854.475 133.503 854.904 132.577C855.332 131.65 857.661 125.947 856.718 124.735C855.789 123.551 851.432 124.122 849.861 124.279C848.318 124.421 848.004 124.564 847.861 124.236C847.532 123.423 850.961 122.026 853.218 121.741C855.461 121.484 859.075 121.627 859.789 122.553C860.318 123.28 859.789 126.417 858.861 128.698Z" fill="black"/>
</g>
<g filter="url(#filter4_d_5341_13595)">
<rect x="470" y="246" width="140" height="140" rx="70" fill="white" shape-rendering="crispEdges"/>
<rect x="475" y="251" width="130" height="130" rx="65" stroke="#F2F6FC" stroke-width="10" shape-rendering="crispEdges"/>
<path d="M530.294 286.105C523.899 288.323 518.384 292.533 514.559 298.118C510.735 303.702 508.801 310.365 509.044 317.129C509.286 323.893 511.691 330.402 515.905 335.698C520.12 340.994 525.922 344.799 532.459 346.555C537.758 347.922 543.311 347.982 548.639 346.73C553.465 345.645 557.927 343.326 561.589 340C565.399 336.431 568.165 331.892 569.589 326.87C571.136 321.408 571.411 315.664 570.394 310.08H540.634V322.425H557.869C557.524 324.393 556.786 326.273 555.698 327.95C554.611 329.627 553.196 331.067 551.539 332.185C549.434 333.577 547.061 334.513 544.574 334.935C542.078 335.398 539.519 335.398 537.024 334.935C534.494 334.412 532.102 333.368 529.999 331.87C526.619 329.477 524.082 326.079 522.749 322.16C521.393 318.166 521.393 313.838 522.749 309.845C523.698 307.046 525.267 304.497 527.339 302.39C529.709 299.933 532.711 298.177 536.014 297.315C539.317 296.452 542.794 296.516 546.064 297.5C548.617 298.283 550.953 299.653 552.884 301.5C554.827 299.566 556.767 297.628 558.704 295.685C559.704 294.64 560.794 293.645 561.779 292.575C558.831 289.832 555.372 287.698 551.599 286.295C544.727 283.799 537.208 283.732 530.294 286.105Z" fill="white"/>
<path d="M530.298 286.105C537.212 283.731 544.731 283.797 551.603 286.29C555.377 287.703 558.835 289.847 561.778 292.6C560.778 293.67 559.723 294.67 558.703 295.71C556.763 297.647 554.824 299.577 552.888 301.5C550.957 299.654 548.622 298.284 546.068 297.5C542.8 296.513 539.323 296.446 536.019 297.305C532.715 298.164 529.711 299.916 527.338 302.37C525.266 304.478 523.697 307.026 522.748 309.825L512.383 301.8C516.093 294.443 522.517 288.815 530.298 286.105Z" fill="#E33629"/>
<path d="M509.628 309.751C510.185 306.99 511.11 304.316 512.378 301.801L522.743 309.846C521.387 313.839 521.387 318.168 522.743 322.161C519.289 324.827 515.834 327.507 512.378 330.201C509.204 323.882 508.235 316.683 509.628 309.751Z" fill="#F8BD00"/>
<path d="M540.635 310.074H570.395C571.413 315.659 571.138 321.403 569.59 326.864C568.166 331.887 565.4 336.426 561.59 339.994C558.245 337.384 554.885 334.794 551.54 332.184C553.198 331.066 554.614 329.624 555.702 327.945C556.789 326.266 557.527 324.385 557.87 322.414H540.635C540.63 318.304 540.635 314.189 540.635 310.074Z" fill="#587DBD"/>
<path d="M512.375 330.2C515.832 327.533 519.287 324.853 522.74 322.16C524.076 326.081 526.617 329.48 530 331.87C532.11 333.361 534.508 334.397 537.04 334.91C539.535 335.374 542.095 335.374 544.59 334.91C547.078 334.489 549.45 333.552 551.555 332.16C554.9 334.77 558.26 337.36 561.605 339.97C557.944 343.299 553.482 345.62 548.655 346.705C543.327 347.958 537.775 347.898 532.475 346.53C528.284 345.411 524.368 343.438 520.975 340.735C517.383 337.884 514.45 334.29 512.375 330.2Z" fill="#319F43"/>
</g>
<defs>
<filter id="filter0_d_5341_13595" x="146" y="364" width="208" height="210" filterUnits="userSpaceOnUse" color-interpolation-filters="sRGB">
<feFlood flood-opacity="0" result="BackgroundImageFix"/>
<feColorMatrix in="SourceAlpha" type="matrix" values="0 0 0 0 0 0 0 0 0 0 0 0 0 0 0 0 0 0 127 0" result="hardAlpha"/>
<feMorphology radius="4" operator="dilate" in="SourceAlpha" result="effect1_dropShadow_5341_13595"/>
<feOffset/>
<feGaussianBlur stdDeviation="15"/>
<feComposite in2="hardAlpha" operator="out"/>
<feColorMatrix type="matrix" values="0 0 0 0 0.694758 0 0 0 0 0.824357 0 0 0 0 0.913462 0 0 0 1 0"/>
<feBlend mode="normal" in2="BackgroundImageFix" result="effect1_dropShadow_5341_13595"/>
<feBlend mode="normal" in="SourceGraphic" in2="effect1_dropShadow_5341_13595" result="shape"/>
</filter>
<filter id="filter1_d_5341_13595" x="437" y="662" width="208" height="208" filterUnits="userSpaceOnUse" color-interpolation-filters="sRGB">
<feFlood flood-opacity="0" result="BackgroundImageFix"/>
<feColorMatrix in="SourceAlpha" type="matrix" values="0 0 0 0 0 0 0 0 0 0 0 0 0 0 0 0 0 0 127 0" result="hardAlpha"/>
<feMorphology radius="4" operator="dilate" in="SourceAlpha" result="effect1_dropShadow_5341_13595"/>
<feOffset/>
<feGaussianBlur stdDeviation="15"/>
<feComposite in2="hardAlpha" operator="out"/>
<feColorMatrix type="matrix" values="0 0 0 0 0.694118 0 0 0 0 0.823529 0 0 0 0 0.913725 0 0 0 1 0"/>
<feBlend mode="normal" in2="BackgroundImageFix" result="effect1_dropShadow_5341_13595"/>
<feBlend mode="normal" in="SourceGraphic" in2="effect1_dropShadow_5341_13595" result="shape"/>
</filter>
<filter id="filter2_d_5341_13595" x="725" y="460" width="208" height="208" filterUnits="userSpaceOnUse" color-interpolation-filters="sRGB">
<feFlood flood-opacity="0" result="BackgroundImageFix"/>
<feColorMatrix in="SourceAlpha" type="matrix" values="0 0 0 0 0 0 0 0 0 0 0 0 0 0 0 0 0 0 127 0" result="hardAlpha"/>
<feMorphology radius="4" operator="dilate" in="SourceAlpha" result="effect1_dropShadow_5341_13595"/>
<feOffset/>
<feGaussianBlur stdDeviation="15"/>
<feComposite in2="hardAlpha" operator="out"/>
<feColorMatrix type="matrix" values="0 0 0 0 0.694118 0 0 0 0 0.823529 0 0 0 0 0.913725 0 0 0 1 0"/>
<feBlend mode="normal" in2="BackgroundImageFix" result="effect1_dropShadow_5341_13595"/>
<feBlend mode="normal" in="SourceGraphic" in2="effect1_dropShadow_5341_13595" result="shape"/>
</filter>
<filter id="filter3_d_5341_13595" x="725" y="2" width="208" height="208" filterUnits="userSpaceOnUse" color-interpolation-filters="sRGB">
<feFlood flood-opacity="0" result="BackgroundImageFix"/>
<feColorMatrix in="SourceAlpha" type="matrix" values="0 0 0 0 0 0 0 0 0 0 0 0 0 0 0 0 0 0 127 0" result="hardAlpha"/>
<feMorphology radius="4" operator="dilate" in="SourceAlpha" result="effect1_dropShadow_5341_13595"/>
<feOffset/>
<feGaussianBlur stdDeviation="15"/>
<feComposite in2="hardAlpha" operator="out"/>
<feColorMatrix type="matrix" values="0 0 0 0 0.694118 0 0 0 0 0.823529 0 0 0 0 0.913725 0 0 0 1 0"/>
<feBlend mode="normal" in2="BackgroundImageFix" result="effect1_dropShadow_5341_13595"/>
<feBlend mode="normal" in="SourceGraphic" in2="effect1_dropShadow_5341_13595" result="shape"/>
</filter>
<filter id="filter4_d_5341_13595" x="440" y="216" width="200" height="200" filterUnits="userSpaceOnUse" color-interpolation-filters="sRGB">
<feFlood flood-opacity="0" result="BackgroundImageFix"/>
<feColorMatrix in="SourceAlpha" type="matrix" values="0 0 0 0 0 0 0 0 0 0 0 0 0 0 0 0 0 0 127 0" result="hardAlpha"/>
<feOffset/>
<feGaussianBlur stdDeviation="15"/>
<feComposite in2="hardAlpha" operator="out"/>
<feColorMatrix type="matrix" values="0 0 0 0 0.694118 0 0 0 0 0.823529 0 0 0 0 0.913725 0 0 0 1 0"/>
<feBlend mode="normal" in2="BackgroundImageFix" result="effect1_dropShadow_5341_13595"/>
<feBlend mode="normal" in="SourceGraphic" in2="effect1_dropShadow_5341_13595" result="shape"/>
</filter>
<linearGradient id="paint0_linear_5341_13595" x1="540" y1="0" x2="540" y2="1080" gradientUnits="userSpaceOnUse">
<stop stop-color="#DAEEFC"/>
<stop offset="1" stop-color="#EFF7FA"/>
</linearGradient>
</defs>
</svg>
