<svg width="1080" height="1080" viewBox="0 0 1080 1080" fill="none" xmlns="http://www.w3.org/2000/svg">
<rect width="1080" height="1080" fill="url(#paint0_linear_5339_13391)"/>
<rect x="204" y="289" width="672" height="378" rx="40" fill="#F1F7F9"/>
<rect x="254.75" y="339.75" width="138.5" height="138.5" rx="39.25" fill="#F8FBFA"/>
<rect x="254.75" y="339.75" width="138.5" height="138.5" rx="39.25" stroke="#DFDFDF" stroke-width="1.5"/>
<path d="M360.771 401.656H357.75V401.5H324V416.5H345.193C342.101 425.232 333.793 431.5 324 431.5C311.574 431.5 301.5 421.426 301.5 409C301.5 396.574 311.574 386.5 324 386.5C329.736 386.5 334.954 388.664 338.927 392.198L349.534 381.591C342.836 375.349 333.878 371.5 324 371.5C303.291 371.5 286.5 388.291 286.5 409C286.5 429.709 303.291 446.5 324 446.5C344.709 446.5 361.5 429.709 361.5 409C361.5 406.486 361.241 404.031 360.771 401.656Z" fill="#FFC107"/>
<path d="M290.824 391.546L303.145 400.581C306.479 392.327 314.552 386.5 324 386.5C329.736 386.5 334.954 388.664 338.927 392.198L349.534 381.591C342.837 375.349 333.878 371.5 324 371.5C309.597 371.5 297.105 379.632 290.824 391.546Z" fill="#FF3D00"/>
<path d="M324.002 446.5C333.688 446.5 342.489 442.793 349.143 436.765L337.537 426.944C333.646 429.905 328.891 431.506 324.002 431.5C314.248 431.5 305.966 425.281 302.846 416.602L290.617 426.023C296.823 438.168 309.427 446.5 324.002 446.5Z" fill="#4CAF50"/>
<path d="M360.771 401.656H357.75V401.5H324V416.5H345.193C343.714 420.656 341.05 424.287 337.53 426.946L337.536 426.942L349.142 436.763C348.321 437.509 361.5 427.75 361.5 409C361.5 406.486 361.241 404.031 360.771 401.656Z" fill="#1976D2"/>
<path d="M260.528 567.696C257.984 565.776 256.448 563.136 255.92 559.68L259.856 557.808C260.336 560.544 261.44 562.656 263.168 564.144C264.896 565.68 267.056 566.4 269.648 566.4C272.048 566.4 274.016 565.92 275.456 564.912C276.896 563.952 277.616 562.56 277.616 560.736C277.616 559.392 277.184 558.336 276.416 557.568C275.648 556.8 274.592 556.272 273.344 555.936C272.048 555.6 270.32 555.312 268.112 555.024C264.512 554.592 261.632 553.728 259.424 552.384C257.216 551.04 256.16 548.88 256.16 545.856C256.16 543.936 256.64 542.304 257.648 540.864C258.656 539.424 260.096 538.32 261.968 537.552C263.84 536.784 266.048 536.352 268.544 536.352C276.608 536.352 280.976 539.76 281.648 546.528L277.712 547.728C277.28 545.28 276.416 543.456 275.072 542.208C273.728 540.96 271.52 540.336 268.544 540.336C266.336 540.336 264.512 540.768 263.12 541.632C261.68 542.496 261.008 543.744 261.008 545.28C261.008 546.576 261.44 547.584 262.304 548.304C263.168 549.072 264.272 549.6 265.616 549.936C266.96 550.272 268.64 550.56 270.704 550.8C273.056 551.136 275.072 551.568 276.704 552.144C278.336 552.72 279.728 553.68 280.784 554.976C281.84 556.272 282.416 558.048 282.416 560.304C282.416 562.416 281.84 564.24 280.736 565.776C279.632 567.312 278.144 568.512 276.224 569.328C274.304 570.192 272.192 570.576 269.84 570.576C266.192 570.576 263.072 569.616 260.528 567.696ZM291.384 569.184C289.56 568.272 288.12 566.88 287.064 565.056C286.008 563.232 285.528 561.024 285.528 558.432C285.528 555.744 286.056 553.392 287.112 551.424C288.168 549.504 289.608 548.016 291.432 546.96C293.256 545.952 295.32 545.424 297.672 545.424C299.928 545.424 301.992 545.904 303.816 546.864C305.64 547.824 307.128 549.264 308.184 551.088C309.24 552.912 309.816 555.12 309.816 557.616C309.816 561.792 308.712 565.008 306.552 567.216C304.344 569.472 301.416 570.576 297.672 570.576C295.272 570.576 293.208 570.144 291.384 569.184ZM303 564.432C304.344 562.944 305.016 560.784 305.016 557.952C305.016 555.12 304.344 552.96 303 551.424C301.656 549.888 299.88 549.12 297.672 549.12C295.464 549.12 293.688 549.888 292.344 551.424C291 552.96 290.376 555.12 290.376 557.952C290.376 560.784 291 562.944 292.344 564.432C293.64 565.968 295.416 566.688 297.672 566.688C299.88 566.688 301.656 565.968 303 564.432ZM321.884 546H330.38V549.696H321.884V570H317.228V549.696H313.436V546H317.228V544.176C317.228 541.488 317.948 539.424 319.484 537.888C321.02 536.352 323.084 535.584 325.724 535.584C327.308 535.584 328.556 535.776 329.42 536.112C330.284 536.448 331.196 536.928 332.108 537.552L329.804 540.816C329.276 540.384 328.7 540 328.124 539.712C327.5 539.424 326.732 539.28 325.82 539.28C324.572 539.28 323.564 539.664 322.892 540.432C322.22 541.2 321.884 542.208 321.884 543.456V546ZM350.14 566.016C349.372 567.312 348.316 568.416 347.02 569.28C345.676 570.144 344.044 570.576 342.076 570.576C339.676 570.576 337.9 570.048 336.7 568.944C335.452 567.84 334.876 566.304 334.876 564.288V549.696H331.852V546H335.308L336.7 538.992H339.532V546H348.7V549.696H339.532V563.376C339.532 565.584 340.684 566.64 342.988 566.64C344.044 566.64 344.956 566.352 345.772 565.68C346.54 565.008 347.308 564.24 348.028 563.28L350.14 566.016ZM383.249 546H387.953L381.089 570H373.985L371.249 557.904C370.529 554.976 370.097 552.24 369.953 549.696H368.897C368.657 552.096 368.225 554.832 367.553 557.904L364.913 570H357.569L350.609 546H355.649L359.345 560.88C359.537 561.84 359.729 562.416 359.825 562.704C359.921 563.184 360.113 563.856 360.305 564.72C360.497 565.584 360.641 566.208 360.737 566.64H361.793C361.841 566.256 361.937 565.68 362.129 564.912C362.321 564.144 362.465 563.568 362.561 563.136L363.089 560.88L366.305 546H372.593L376.049 561.552L376.529 563.616C376.913 565.056 377.105 566.064 377.201 566.64H378.305C378.353 566.16 378.497 565.44 378.737 564.48C378.929 563.52 379.121 562.896 379.217 562.512L379.457 561.552L383.249 546ZM414.669 569.376C414.285 569.664 413.805 569.952 413.133 570.192C412.461 570.48 411.789 570.576 411.213 570.576C409.773 570.576 408.669 570.192 407.901 569.376C407.133 568.608 406.749 567.36 406.749 565.728C406.749 565.056 406.797 564.336 406.941 563.664H405.981C405.405 566.064 404.445 567.792 403.101 568.896C401.709 570.048 399.837 570.576 397.485 570.576C394.845 570.576 392.781 569.952 391.293 568.608C389.757 567.264 389.037 565.536 389.037 563.424C389.037 560.832 390.093 558.864 392.205 557.52C394.317 556.176 397.149 555.504 400.701 555.504C402.333 555.504 404.109 555.648 405.933 555.936V553.968C405.933 550.752 403.965 549.12 400.125 549.12C398.397 549.12 397.005 549.552 396.045 550.32C395.085 551.088 394.365 552.288 393.981 553.824L390.189 552.672C390.477 550.368 391.581 548.592 393.501 547.344C395.373 546.096 397.773 545.424 400.749 545.424C403.725 545.424 406.125 546.144 407.901 547.584C409.677 549.024 410.589 551.088 410.589 553.68V563.808C410.589 564.816 410.685 565.584 410.973 566.16C411.261 566.736 411.645 566.976 412.221 566.976C412.605 566.976 413.037 566.832 413.565 566.496L414.669 569.376ZM405.837 559.2C404.205 559.056 402.909 558.96 401.901 558.96C399.309 558.96 397.341 559.344 395.949 560.064C394.557 560.784 393.885 561.888 393.885 563.328C393.885 564.384 394.221 565.2 394.941 565.776C395.661 566.4 396.669 566.688 397.965 566.688C402.621 566.688 405.261 564.192 405.837 559.2ZM434.608 546.864L433.408 551.568C433.072 551.184 432.544 550.8 431.872 550.416C431.2 550.032 430.432 549.84 429.616 549.84C428.272 549.84 427.12 550.368 426.064 551.328C425.008 552.336 424.144 553.776 423.568 555.696C422.992 557.616 422.704 559.92 422.704 562.608V570H418.048V546H421.792L422.272 553.584H423.184C423.472 551.184 424.24 549.264 425.488 547.728C426.688 546.192 428.32 545.424 430.336 545.424C432.064 545.424 433.456 545.904 434.608 546.864ZM455.345 548.64C457.265 550.8 458.273 553.728 458.273 557.472C458.273 558.48 458.225 559.248 458.177 559.728H440.657C440.849 561.984 441.617 563.712 442.865 564.912C444.113 566.16 445.697 566.736 447.617 566.736C449.297 566.736 450.689 566.4 451.745 565.68C452.801 565.008 453.569 563.952 454.145 562.608L457.697 563.76C457.121 565.872 455.921 567.552 454.145 568.752C452.369 570 450.113 570.576 447.329 570.576C443.633 570.576 440.801 569.52 438.785 567.408C436.769 565.296 435.809 562.32 435.809 558.528C435.809 555.984 436.241 553.728 437.201 551.76C438.113 549.792 439.457 548.256 441.233 547.104C443.009 546 445.121 545.424 447.521 545.424C450.785 545.424 453.425 546.528 455.345 548.64ZM442.961 551.04C441.713 552.288 440.993 554.064 440.705 556.368H453.713C453.617 554.112 453.089 552.336 452.033 551.04C450.977 549.792 449.441 549.12 447.473 549.12C445.649 549.12 444.161 549.792 442.961 551.04ZM499.559 540.768C502.247 543.36 503.591 547.44 503.591 553.104C503.591 559.008 502.247 563.28 499.559 565.968C496.871 568.656 493.223 570 488.519 570H474.455V536.88H488.519C493.223 536.88 496.871 538.176 499.559 540.768ZM487.367 565.728C491.015 565.728 493.751 564.816 495.623 562.944C497.495 561.12 498.455 557.808 498.455 553.104C498.455 548.688 497.447 545.616 495.527 543.792C493.559 541.968 490.679 541.056 486.887 541.056H479.351V565.728H487.367ZM526.267 548.64C528.187 550.8 529.195 553.728 529.195 557.472C529.195 558.48 529.147 559.248 529.099 559.728H511.579C511.771 561.984 512.539 563.712 513.787 564.912C515.035 566.16 516.619 566.736 518.539 566.736C520.219 566.736 521.611 566.4 522.667 565.68C523.723 565.008 524.491 563.952 525.067 562.608L528.619 563.76C528.043 565.872 526.843 567.552 525.067 568.752C523.291 570 521.035 570.576 518.251 570.576C514.555 570.576 511.723 569.52 509.707 567.408C507.691 565.296 506.731 562.32 506.731 558.528C506.731 555.984 507.163 553.728 508.123 551.76C509.035 549.792 510.379 548.256 512.155 547.104C513.931 546 516.043 545.424 518.443 545.424C521.707 545.424 524.347 546.528 526.267 548.64ZM513.883 551.04C512.635 552.288 511.915 554.064 511.627 556.368H524.635C524.539 554.112 524.011 552.336 522.955 551.04C521.899 549.792 520.363 549.12 518.395 549.12C516.571 549.12 515.083 549.792 513.883 551.04ZM548.996 546H554.036L545.156 570H539.348L530.516 546H535.748L539.78 558.48C540.26 560.16 540.692 561.6 541.028 562.8C541.364 564 541.652 565.296 541.94 566.64H542.804C543.092 564.912 543.716 562.512 544.58 559.536C544.628 559.392 544.724 559.056 544.916 558.48L548.996 546ZM574.455 548.64C576.375 550.8 577.383 553.728 577.383 557.472C577.383 558.48 577.335 559.248 577.287 559.728H559.767C559.959 561.984 560.727 563.712 561.975 564.912C563.223 566.16 564.807 566.736 566.727 566.736C568.407 566.736 569.799 566.4 570.855 565.68C571.911 565.008 572.679 563.952 573.255 562.608L576.807 563.76C576.231 565.872 575.031 567.552 573.255 568.752C571.479 570 569.223 570.576 566.439 570.576C562.743 570.576 559.911 569.52 557.895 567.408C555.879 565.296 554.919 562.32 554.919 558.528C554.919 555.984 555.351 553.728 556.311 551.76C557.223 549.792 558.567 548.256 560.343 547.104C562.119 546 564.231 545.424 566.631 545.424C569.895 545.424 572.535 546.528 574.455 548.64ZM562.071 551.04C560.823 552.288 560.103 554.064 559.815 556.368H572.823C572.727 554.112 572.199 552.336 571.143 551.04C570.087 549.792 568.551 549.12 566.583 549.12C564.759 549.12 563.271 549.792 562.071 551.04ZM592.524 569.472C592.14 569.76 591.516 570.048 590.556 570.24C589.596 570.48 588.636 570.576 587.58 570.576C585.708 570.576 584.364 570.144 583.5 569.232C582.636 568.32 582.204 566.88 582.204 564.96V536.16H586.86V564.144C586.86 565.776 587.628 566.592 589.212 566.592C589.98 566.592 590.748 566.4 591.516 565.968L592.524 569.472ZM599.915 569.184C598.091 568.272 596.651 566.88 595.595 565.056C594.539 563.232 594.059 561.024 594.059 558.432C594.059 555.744 594.587 553.392 595.643 551.424C596.699 549.504 598.139 548.016 599.963 546.96C601.787 545.952 603.851 545.424 606.203 545.424C608.459 545.424 610.523 545.904 612.347 546.864C614.171 547.824 615.659 549.264 616.715 551.088C617.771 552.912 618.347 555.12 618.347 557.616C618.347 561.792 617.243 565.008 615.083 567.216C612.875 569.472 609.947 570.576 606.203 570.576C603.803 570.576 601.739 570.144 599.915 569.184ZM611.531 564.432C612.875 562.944 613.547 560.784 613.547 557.952C613.547 555.12 612.875 552.96 611.531 551.424C610.187 549.888 608.411 549.12 606.203 549.12C603.995 549.12 602.219 549.888 600.875 551.424C599.531 552.96 598.907 555.12 598.907 557.952C598.907 560.784 599.531 562.944 600.875 564.432C602.171 565.968 603.947 566.688 606.203 566.688C608.411 566.688 610.187 565.968 611.531 564.432ZM645.487 548.592C647.311 550.704 648.223 553.776 648.223 557.808C648.223 560.496 647.743 562.752 646.831 564.672C645.919 566.592 644.671 568.08 643.135 569.088C641.551 570.096 639.775 570.576 637.855 570.576C635.647 570.576 633.727 570 632.143 568.8C630.511 567.648 629.359 565.92 628.639 563.664H627.823C627.967 566.4 628.063 569.424 628.063 572.688V579.6H623.407V546H627.151L627.919 552.24H628.735C629.455 550.128 630.607 548.448 632.239 547.248C633.823 546.048 635.791 545.424 638.143 545.424C641.215 545.424 643.663 546.48 645.487 548.592ZM641.599 564.288C642.751 562.752 643.375 560.592 643.375 557.856C643.375 552.048 641.071 549.12 636.559 549.12C635.023 549.12 633.727 549.552 632.575 550.32C631.423 551.088 630.511 552.192 629.887 553.536C629.263 554.88 628.975 556.416 628.975 558.048C628.975 560.64 629.647 562.752 630.991 564.288C632.335 565.872 634.159 566.64 636.415 566.64C638.671 566.64 640.399 565.872 641.599 564.288ZM671.111 548.64C673.031 550.8 674.039 553.728 674.039 557.472C674.039 558.48 673.991 559.248 673.943 559.728H656.423C656.615 561.984 657.383 563.712 658.631 564.912C659.879 566.16 661.463 566.736 663.383 566.736C665.063 566.736 666.455 566.4 667.511 565.68C668.567 565.008 669.335 563.952 669.911 562.608L673.463 563.76C672.887 565.872 671.687 567.552 669.911 568.752C668.135 570 665.879 570.576 663.095 570.576C659.399 570.576 656.567 569.52 654.551 567.408C652.535 565.296 651.575 562.32 651.575 558.528C651.575 555.984 652.007 553.728 652.967 551.76C653.879 549.792 655.223 548.256 656.999 547.104C658.775 546 660.887 545.424 663.287 545.424C666.551 545.424 669.191 546.528 671.111 548.64ZM658.727 551.04C657.479 552.288 656.759 554.064 656.471 556.368H669.479C669.383 554.112 668.855 552.336 667.799 551.04C666.743 549.792 665.207 549.12 663.239 549.12C661.415 549.12 659.927 549.792 658.727 551.04ZM695.42 546.864L694.22 551.568C693.884 551.184 693.356 550.8 692.684 550.416C692.012 550.032 691.244 549.84 690.428 549.84C689.084 549.84 687.932 550.368 686.876 551.328C685.82 552.336 684.956 553.776 684.38 555.696C683.804 557.616 683.516 559.92 683.516 562.608V570H678.86V546H682.604L683.084 553.584H683.996C684.284 551.184 685.052 549.264 686.3 547.728C687.5 546.192 689.132 545.424 691.148 545.424C692.876 545.424 694.268 545.904 695.42 546.864Z" fill="black"/>
<path d="M301 619.5C306.371 619.5 311.521 621.633 315.319 625.431C319.117 629.229 321.25 634.379 321.25 639.75C321.25 646.666 317.479 652.328 313.506 656.389C311.52 658.396 309.354 660.216 307.035 661.825L306.076 662.477L305.626 662.776L304.778 663.317L304.022 663.778L303.086 664.322C302.45 664.685 301.732 664.876 301 664.876C300.268 664.876 299.55 664.685 298.914 664.322L297.978 663.778L296.808 663.058L296.376 662.776L295.454 662.162C292.951 660.469 290.621 658.535 288.494 656.389C284.521 652.325 280.75 646.666 280.75 639.75C280.75 634.379 282.883 629.229 286.681 625.431C290.479 621.633 295.629 619.5 301 619.5ZM301 633C300.114 633 299.236 633.175 298.417 633.514C297.598 633.853 296.854 634.35 296.227 634.977C295.6 635.604 295.103 636.348 294.764 637.167C294.425 637.986 294.25 638.864 294.25 639.75C294.25 640.636 294.425 641.514 294.764 642.333C295.103 643.152 295.6 643.896 296.227 644.523C296.854 645.15 297.598 645.647 298.417 645.986C299.236 646.325 300.114 646.5 301 646.5C302.79 646.5 304.507 645.789 305.773 644.523C307.039 643.257 307.75 641.54 307.75 639.75C307.75 637.96 307.039 636.243 305.773 634.977C304.507 633.711 302.79 633 301 633Z" fill="#CED4D7"/>
<path d="M354.64 628.12V645.76C354.64 648.24 355.24 650.08 356.44 651.28C357.667 652.48 359.36 653.08 361.52 653.08C363.653 653.08 365.32 652.48 366.52 651.28C367.747 650.08 368.36 648.24 368.36 645.76V628.12H372V645.72C372 648.04 371.533 650 370.6 651.6C369.667 653.173 368.4 654.347 366.8 655.12C365.227 655.893 363.453 656.28 361.48 656.28C359.507 656.28 357.72 655.893 356.12 655.12C354.547 654.347 353.293 653.173 352.36 651.6C351.453 650 351 648.04 351 645.72V628.12H354.64ZM386.912 656.28C385.072 656.28 383.419 655.96 381.952 655.32C380.512 654.653 379.379 653.747 378.552 652.6C377.726 651.427 377.299 650.08 377.272 648.56H381.152C381.286 649.867 381.819 650.973 382.752 651.88C383.712 652.76 385.099 653.2 386.912 653.2C388.646 653.2 390.006 652.773 390.992 651.92C392.006 651.04 392.512 649.92 392.512 648.56C392.512 647.493 392.219 646.627 391.632 645.96C391.046 645.293 390.312 644.787 389.432 644.44C388.552 644.093 387.366 643.72 385.872 643.32C384.032 642.84 382.552 642.36 381.432 641.88C380.339 641.4 379.392 640.653 378.592 639.64C377.819 638.6 377.432 637.213 377.432 635.48C377.432 633.96 377.819 632.613 378.592 631.44C379.366 630.267 380.446 629.36 381.832 628.72C383.246 628.08 384.859 627.76 386.672 627.76C389.286 627.76 391.419 628.413 393.072 629.72C394.752 631.027 395.699 632.76 395.912 634.92H391.912C391.779 633.853 391.219 632.92 390.232 632.12C389.246 631.293 387.939 630.88 386.312 630.88C384.792 630.88 383.552 631.28 382.592 632.08C381.632 632.853 381.152 633.947 381.152 635.36C381.152 636.373 381.432 637.2 381.992 637.84C382.579 638.48 383.286 638.973 384.112 639.32C384.966 639.64 386.152 640.013 387.672 640.44C389.512 640.947 390.992 641.453 392.112 641.96C393.232 642.44 394.192 643.2 394.992 644.24C395.792 645.253 396.192 646.64 396.192 648.4C396.192 649.76 395.832 651.04 395.112 652.24C394.392 653.44 393.326 654.413 391.912 655.16C390.499 655.907 388.832 656.28 386.912 656.28ZM418.029 649.8H405.869L403.629 656H399.789L409.869 628.28H414.069L424.109 656H420.269L418.029 649.8ZM416.989 646.84L411.949 632.76L406.909 646.84H416.989Z" fill="#CED4D7"/>
<path d="M553 619.5C565.427 619.5 575.5 629.573 575.5 642C575.5 654.427 565.427 664.5 553 664.5C540.573 664.5 530.5 654.427 530.5 642C530.5 629.573 540.573 619.5 553 619.5ZM553 628.5C552.403 628.5 551.831 628.737 551.409 629.159C550.987 629.581 550.75 630.153 550.75 630.75V642C550.75 642.597 550.987 643.169 551.409 643.591L558.159 650.341C558.584 650.751 559.152 650.977 559.742 650.972C560.332 650.967 560.896 650.731 561.313 650.313C561.731 649.896 561.967 649.332 561.972 648.742C561.977 648.152 561.751 647.584 561.341 647.159L555.25 641.069V630.75C555.25 630.153 555.013 629.581 554.591 629.159C554.169 628.737 553.597 628.5 553 628.5Z" fill="#CED4D7"/>
<path d="M620.92 630.24H606.88V639.36C607.493 638.507 608.4 637.813 609.6 637.28C610.8 636.72 612.093 636.44 613.48 636.44C615.693 636.44 617.493 636.907 618.88 637.84C620.267 638.747 621.253 639.933 621.84 641.4C622.453 642.84 622.76 644.373 622.76 646C622.76 647.92 622.4 649.64 621.68 651.16C620.96 652.68 619.853 653.88 618.36 654.76C616.893 655.64 615.067 656.08 612.88 656.08C610.08 656.08 607.813 655.36 606.08 653.92C604.347 652.48 603.293 650.56 602.92 648.16H606.48C606.827 649.68 607.56 650.867 608.68 651.72C609.8 652.573 611.213 653 612.92 653C615.027 653 616.613 652.373 617.68 651.12C618.747 649.84 619.28 648.16 619.28 646.08C619.28 644 618.747 642.4 617.68 641.28C616.613 640.133 615.04 639.56 612.96 639.56C611.547 639.56 610.307 639.907 609.24 640.6C608.2 641.267 607.44 642.187 606.96 643.36H603.52V627.04H620.92V630.24ZM647.541 628.12C650.581 628.12 653.208 628.693 655.421 629.84C657.661 630.96 659.368 632.573 660.541 634.68C661.741 636.787 662.341 639.267 662.341 642.12C662.341 644.973 661.741 647.453 660.541 649.56C659.368 651.64 657.661 653.24 655.421 654.36C653.208 655.453 650.581 656 647.541 656H638.861V628.12H647.541ZM647.541 653C651.141 653 653.888 652.053 655.781 650.16C657.675 648.24 658.621 645.56 658.621 642.12C658.621 638.653 657.661 635.947 655.741 634C653.848 632.053 651.115 631.08 647.541 631.08H642.501V653H647.541ZM665.783 644.96C665.783 642.72 666.236 640.76 667.143 639.08C668.049 637.373 669.289 636.053 670.863 635.12C672.463 634.187 674.236 633.72 676.183 633.72C678.103 633.72 679.769 634.133 681.183 634.96C682.596 635.787 683.649 636.827 684.343 638.08V634.08H688.023V656H684.343V651.92C683.623 653.2 682.543 654.267 681.103 655.12C679.689 655.947 678.036 656.36 676.143 656.36C674.196 656.36 672.436 655.88 670.863 654.92C669.289 653.96 668.049 652.613 667.143 650.88C666.236 649.147 665.783 647.173 665.783 644.96ZM684.343 645C684.343 643.347 684.009 641.907 683.343 640.68C682.676 639.453 681.769 638.52 680.623 637.88C679.503 637.213 678.263 636.88 676.903 636.88C675.543 636.88 674.303 637.2 673.183 637.84C672.063 638.48 671.169 639.413 670.503 640.64C669.836 641.867 669.503 643.307 669.503 644.96C669.503 646.64 669.836 648.107 670.503 649.36C671.169 650.587 672.063 651.533 673.183 652.2C674.303 652.84 675.543 653.16 676.903 653.16C678.263 653.16 679.503 652.84 680.623 652.2C681.769 651.533 682.676 650.587 683.343 649.36C684.009 648.107 684.343 646.653 684.343 645ZM713.054 634.08L699.854 666.32H696.094L700.414 655.76L691.574 634.08H695.614L702.494 651.84L709.294 634.08H713.054ZM724.473 656.36C722.793 656.36 721.286 656.08 719.953 655.52C718.619 654.933 717.566 654.133 716.793 653.12C716.019 652.08 715.593 650.893 715.513 649.56H719.273C719.379 650.653 719.886 651.547 720.793 652.24C721.726 652.933 722.939 653.28 724.433 653.28C725.819 653.28 726.913 652.973 727.713 652.36C728.513 651.747 728.913 650.973 728.913 650.04C728.913 649.08 728.486 648.373 727.633 647.92C726.779 647.44 725.459 646.973 723.673 646.52C722.046 646.093 720.713 645.667 719.673 645.24C718.659 644.787 717.779 644.133 717.033 643.28C716.313 642.4 715.953 641.253 715.953 639.84C715.953 638.72 716.286 637.693 716.953 636.76C717.619 635.827 718.566 635.093 719.793 634.56C721.019 634 722.419 633.72 723.993 633.72C726.419 633.72 728.379 634.333 729.873 635.56C731.366 636.787 732.166 638.467 732.273 640.6H728.633C728.553 639.453 728.086 638.533 727.233 637.84C726.406 637.147 725.286 636.8 723.873 636.8C722.566 636.8 721.526 637.08 720.753 637.64C719.979 638.2 719.593 638.933 719.593 639.84C719.593 640.56 719.819 641.16 720.273 641.64C720.753 642.093 721.339 642.467 722.033 642.76C722.753 643.027 723.739 643.333 724.993 643.68C726.566 644.107 727.846 644.533 728.833 644.96C729.819 645.36 730.659 645.973 731.353 646.8C732.073 647.627 732.446 648.707 732.473 650.04C732.473 651.24 732.139 652.32 731.473 653.28C730.806 654.24 729.859 655 728.633 655.56C727.433 656.093 726.046 656.36 724.473 656.36ZM764.755 649.8H752.595L750.355 656H746.515L756.595 628.28H760.795L770.835 656H766.995L764.755 649.8ZM763.715 646.84L758.675 632.76L753.635 646.84H763.715ZM784.268 633.72C786.162 633.72 787.815 634.133 789.228 634.96C790.668 635.787 791.735 636.827 792.428 638.08V634.08H796.108V656.48C796.108 658.48 795.682 660.253 794.828 661.8C793.975 663.373 792.748 664.6 791.148 665.48C789.575 666.36 787.735 666.8 785.628 666.8C782.748 666.8 780.348 666.12 778.428 664.76C776.508 663.4 775.375 661.547 775.028 659.2H778.628C779.028 660.533 779.855 661.6 781.108 662.4C782.362 663.227 783.868 663.64 785.628 663.64C787.628 663.64 789.255 663.013 790.508 661.76C791.788 660.507 792.428 658.747 792.428 656.48V651.88C791.708 653.16 790.642 654.227 789.228 655.08C787.815 655.933 786.162 656.36 784.268 656.36C782.322 656.36 780.548 655.88 778.948 654.92C777.375 653.96 776.135 652.613 775.228 650.88C774.322 649.147 773.868 647.173 773.868 644.96C773.868 642.72 774.322 640.76 775.228 639.08C776.135 637.373 777.375 636.053 778.948 635.12C780.548 634.187 782.322 633.72 784.268 633.72ZM792.428 645C792.428 643.347 792.095 641.907 791.428 640.68C790.762 639.453 789.855 638.52 788.708 637.88C787.588 637.213 786.348 636.88 784.988 636.88C783.628 636.88 782.388 637.2 781.268 637.84C780.148 638.48 779.255 639.413 778.588 640.64C777.922 641.867 777.588 643.307 777.588 644.96C777.588 646.64 777.922 648.107 778.588 649.36C779.255 650.587 780.148 651.533 781.268 652.2C782.388 652.84 783.628 653.16 784.988 653.16C786.348 653.16 787.588 652.84 788.708 652.2C789.855 651.533 790.762 650.587 791.428 649.36C792.095 648.107 792.428 646.653 792.428 645ZM811.82 656.36C809.766 656.36 807.9 655.893 806.22 654.96C804.566 654.027 803.26 652.707 802.3 651C801.366 649.267 800.9 647.267 800.9 645C800.9 642.76 801.38 640.787 802.34 639.08C803.326 637.347 804.66 636.027 806.34 635.12C808.02 634.187 809.9 633.72 811.98 633.72C814.06 633.72 815.94 634.187 817.62 635.12C819.3 636.027 820.62 637.333 821.58 639.04C822.566 640.747 823.06 642.733 823.06 645C823.06 647.267 822.553 649.267 821.54 651C820.553 652.707 819.206 654.027 817.5 654.96C815.793 655.893 813.9 656.36 811.82 656.36ZM811.82 653.16C813.126 653.16 814.353 652.853 815.5 652.24C816.646 651.627 817.566 650.707 818.26 649.48C818.98 648.253 819.34 646.76 819.34 645C819.34 643.24 818.993 641.747 818.3 640.52C817.606 639.293 816.7 638.387 815.58 637.8C814.46 637.187 813.246 636.88 811.94 636.88C810.606 636.88 809.38 637.187 808.26 637.8C807.166 638.387 806.286 639.293 805.62 640.52C804.953 641.747 804.62 643.24 804.62 645C804.62 646.787 804.94 648.293 805.58 649.52C806.246 650.747 807.126 651.667 808.22 652.28C809.313 652.867 810.513 653.16 811.82 653.16Z" fill="#CED4D7"/>
<rect x="140.5" y="341.5" width="799" height="449" rx="39.5" fill="white"/>
<rect x="140.5" y="341.5" width="799" height="449" rx="39.5" stroke="#F2F2F2"/>
<rect x="190.75" y="391.75" width="138.5" height="138.5" rx="39.25" fill="#F8FBFA"/>
<rect x="190.75" y="391.75" width="138.5" height="138.5" rx="39.25" stroke="#DFDFDF" stroke-width="1.5"/>
<path d="M296.771 453.656H293.75V453.5H260V468.5H281.193C278.101 477.232 269.793 483.5 260 483.5C247.574 483.5 237.5 473.426 237.5 461C237.5 448.574 247.574 438.5 260 438.5C265.736 438.5 270.954 440.664 274.927 444.198L285.534 433.591C278.836 427.349 269.878 423.5 260 423.5C239.291 423.5 222.5 440.291 222.5 461C222.5 481.709 239.291 498.5 260 498.5C280.709 498.5 297.5 481.709 297.5 461C297.5 458.486 297.241 456.031 296.771 453.656Z" fill="#FFC107"/>
<path d="M226.824 443.546L239.145 452.581C242.479 444.327 250.552 438.5 260 438.5C265.736 438.5 270.954 440.664 274.927 444.198L285.534 433.591C278.837 427.349 269.878 423.5 260 423.5C245.597 423.5 233.105 431.632 226.824 443.546Z" fill="#FF3D00"/>
<path d="M260.002 498.5C269.688 498.5 278.489 494.793 285.143 488.765L273.537 478.944C269.646 481.905 264.891 483.506 260.002 483.5C250.248 483.5 241.966 477.281 238.846 468.602L226.617 478.023C232.823 490.168 245.427 498.5 260.002 498.5Z" fill="#4CAF50"/>
<path d="M296.771 453.656H293.75V453.5H260V468.5H281.193C279.714 472.656 277.05 476.287 273.53 478.946L273.536 478.942L285.142 488.763C284.321 489.509 297.5 479.75 297.5 461C297.5 458.486 297.241 456.031 296.771 453.656Z" fill="#1976D2"/>
<path d="M196.528 619.696C193.984 617.776 192.448 615.136 191.92 611.68L195.856 609.808C196.336 612.544 197.44 614.656 199.168 616.144C200.896 617.68 203.056 618.4 205.648 618.4C208.048 618.4 210.016 617.92 211.456 616.912C212.896 615.952 213.616 614.56 213.616 612.736C213.616 611.392 213.184 610.336 212.416 609.568C211.648 608.8 210.592 608.272 209.344 607.936C208.048 607.6 206.32 607.312 204.112 607.024C200.512 606.592 197.632 605.728 195.424 604.384C193.216 603.04 192.16 600.88 192.16 597.856C192.16 595.936 192.64 594.304 193.648 592.864C194.656 591.424 196.096 590.32 197.968 589.552C199.84 588.784 202.048 588.352 204.544 588.352C212.608 588.352 216.976 591.76 217.648 598.528L213.712 599.728C213.28 597.28 212.416 595.456 211.072 594.208C209.728 592.96 207.52 592.336 204.544 592.336C202.336 592.336 200.512 592.768 199.12 593.632C197.68 594.496 197.008 595.744 197.008 597.28C197.008 598.576 197.44 599.584 198.304 600.304C199.168 601.072 200.272 601.6 201.616 601.936C202.96 602.272 204.64 602.56 206.704 602.8C209.056 603.136 211.072 603.568 212.704 604.144C214.336 604.72 215.728 605.68 216.784 606.976C217.84 608.272 218.416 610.048 218.416 612.304C218.416 614.416 217.84 616.24 216.736 617.776C215.632 619.312 214.144 620.512 212.224 621.328C210.304 622.192 208.192 622.576 205.84 622.576C202.192 622.576 199.072 621.616 196.528 619.696ZM227.384 621.184C225.56 620.272 224.12 618.88 223.064 617.056C222.008 615.232 221.528 613.024 221.528 610.432C221.528 607.744 222.056 605.392 223.112 603.424C224.168 601.504 225.608 600.016 227.432 598.96C229.256 597.952 231.32 597.424 233.672 597.424C235.928 597.424 237.992 597.904 239.816 598.864C241.64 599.824 243.128 601.264 244.184 603.088C245.24 604.912 245.816 607.12 245.816 609.616C245.816 613.792 244.712 617.008 242.552 619.216C240.344 621.472 237.416 622.576 233.672 622.576C231.272 622.576 229.208 622.144 227.384 621.184ZM239 616.432C240.344 614.944 241.016 612.784 241.016 609.952C241.016 607.12 240.344 604.96 239 603.424C237.656 601.888 235.88 601.12 233.672 601.12C231.464 601.12 229.688 601.888 228.344 603.424C227 604.96 226.376 607.12 226.376 609.952C226.376 612.784 227 614.944 228.344 616.432C229.64 617.968 231.416 618.688 233.672 618.688C235.88 618.688 237.656 617.968 239 616.432ZM257.884 598H266.38V601.696H257.884V622H253.228V601.696H249.436V598H253.228V596.176C253.228 593.488 253.948 591.424 255.484 589.888C257.02 588.352 259.084 587.584 261.724 587.584C263.308 587.584 264.556 587.776 265.42 588.112C266.284 588.448 267.196 588.928 268.108 589.552L265.804 592.816C265.276 592.384 264.7 592 264.124 591.712C263.5 591.424 262.732 591.28 261.82 591.28C260.572 591.28 259.564 591.664 258.892 592.432C258.22 593.2 257.884 594.208 257.884 595.456V598ZM286.14 618.016C285.372 619.312 284.316 620.416 283.02 621.28C281.676 622.144 280.044 622.576 278.076 622.576C275.676 622.576 273.9 622.048 272.7 620.944C271.452 619.84 270.876 618.304 270.876 616.288V601.696H267.852V598H271.308L272.7 590.992H275.532V598H284.7V601.696H275.532V615.376C275.532 617.584 276.684 618.64 278.988 618.64C280.044 618.64 280.956 618.352 281.772 617.68C282.54 617.008 283.308 616.24 284.028 615.28L286.14 618.016ZM319.249 598H323.953L317.089 622H309.985L307.249 609.904C306.529 606.976 306.097 604.24 305.953 601.696H304.897C304.657 604.096 304.225 606.832 303.553 609.904L300.913 622H293.569L286.609 598H291.649L295.345 612.88C295.537 613.84 295.729 614.416 295.825 614.704C295.921 615.184 296.113 615.856 296.305 616.72C296.497 617.584 296.641 618.208 296.737 618.64H297.793C297.841 618.256 297.937 617.68 298.129 616.912C298.321 616.144 298.465 615.568 298.561 615.136L299.089 612.88L302.305 598H308.593L312.049 613.552L312.529 615.616C312.913 617.056 313.105 618.064 313.201 618.64H314.305C314.353 618.16 314.497 617.44 314.737 616.48C314.929 615.52 315.121 614.896 315.217 614.512L315.457 613.552L319.249 598ZM350.669 621.376C350.285 621.664 349.805 621.952 349.133 622.192C348.461 622.48 347.789 622.576 347.213 622.576C345.773 622.576 344.669 622.192 343.901 621.376C343.133 620.608 342.749 619.36 342.749 617.728C342.749 617.056 342.797 616.336 342.941 615.664H341.981C341.405 618.064 340.445 619.792 339.101 620.896C337.709 622.048 335.837 622.576 333.485 622.576C330.845 622.576 328.781 621.952 327.293 620.608C325.757 619.264 325.037 617.536 325.037 615.424C325.037 612.832 326.093 610.864 328.205 609.52C330.317 608.176 333.149 607.504 336.701 607.504C338.333 607.504 340.109 607.648 341.933 607.936V605.968C341.933 602.752 339.965 601.12 336.125 601.12C334.397 601.12 333.005 601.552 332.045 602.32C331.085 603.088 330.365 604.288 329.981 605.824L326.189 604.672C326.477 602.368 327.581 600.592 329.501 599.344C331.373 598.096 333.773 597.424 336.749 597.424C339.725 597.424 342.125 598.144 343.901 599.584C345.677 601.024 346.589 603.088 346.589 605.68V615.808C346.589 616.816 346.685 617.584 346.973 618.16C347.261 618.736 347.645 618.976 348.221 618.976C348.605 618.976 349.037 618.832 349.565 618.496L350.669 621.376ZM341.837 611.2C340.205 611.056 338.909 610.96 337.901 610.96C335.309 610.96 333.341 611.344 331.949 612.064C330.557 612.784 329.885 613.888 329.885 615.328C329.885 616.384 330.221 617.2 330.941 617.776C331.661 618.4 332.669 618.688 333.965 618.688C338.621 618.688 341.261 616.192 341.837 611.2ZM370.608 598.864L369.408 603.568C369.072 603.184 368.544 602.8 367.872 602.416C367.2 602.032 366.432 601.84 365.616 601.84C364.272 601.84 363.12 602.368 362.064 603.328C361.008 604.336 360.144 605.776 359.568 607.696C358.992 609.616 358.704 611.92 358.704 614.608V622H354.048V598H357.792L358.272 605.584H359.184C359.472 603.184 360.24 601.264 361.488 599.728C362.688 598.192 364.32 597.424 366.336 597.424C368.064 597.424 369.456 597.904 370.608 598.864ZM391.345 600.64C393.265 602.8 394.273 605.728 394.273 609.472C394.273 610.48 394.225 611.248 394.177 611.728H376.657C376.849 613.984 377.617 615.712 378.865 616.912C380.113 618.16 381.697 618.736 383.617 618.736C385.297 618.736 386.689 618.4 387.745 617.68C388.801 617.008 389.569 615.952 390.145 614.608L393.697 615.76C393.121 617.872 391.921 619.552 390.145 620.752C388.369 622 386.113 622.576 383.329 622.576C379.633 622.576 376.801 621.52 374.785 619.408C372.769 617.296 371.809 614.32 371.809 610.528C371.809 607.984 372.241 605.728 373.201 603.76C374.113 601.792 375.457 600.256 377.233 599.104C379.009 598 381.121 597.424 383.521 597.424C386.785 597.424 389.425 598.528 391.345 600.64ZM378.961 603.04C377.713 604.288 376.993 606.064 376.705 608.368H389.713C389.617 606.112 389.089 604.336 388.033 603.04C386.977 601.792 385.441 601.12 383.473 601.12C381.649 601.12 380.161 601.792 378.961 603.04ZM435.559 592.768C438.247 595.36 439.591 599.44 439.591 605.104C439.591 611.008 438.247 615.28 435.559 617.968C432.871 620.656 429.223 622 424.519 622H410.455V588.88H424.519C429.223 588.88 432.871 590.176 435.559 592.768ZM423.367 617.728C427.015 617.728 429.751 616.816 431.623 614.944C433.495 613.12 434.455 609.808 434.455 605.104C434.455 600.688 433.447 597.616 431.527 595.792C429.559 593.968 426.679 593.056 422.887 593.056H415.351V617.728H423.367ZM462.267 600.64C464.187 602.8 465.195 605.728 465.195 609.472C465.195 610.48 465.147 611.248 465.099 611.728H447.579C447.771 613.984 448.539 615.712 449.787 616.912C451.035 618.16 452.619 618.736 454.539 618.736C456.219 618.736 457.611 618.4 458.667 617.68C459.723 617.008 460.491 615.952 461.067 614.608L464.619 615.76C464.043 617.872 462.843 619.552 461.067 620.752C459.291 622 457.035 622.576 454.251 622.576C450.555 622.576 447.723 621.52 445.707 619.408C443.691 617.296 442.731 614.32 442.731 610.528C442.731 607.984 443.163 605.728 444.123 603.76C445.035 601.792 446.379 600.256 448.155 599.104C449.931 598 452.043 597.424 454.443 597.424C457.707 597.424 460.347 598.528 462.267 600.64ZM449.883 603.04C448.635 604.288 447.915 606.064 447.627 608.368H460.635C460.539 606.112 460.011 604.336 458.955 603.04C457.899 601.792 456.363 601.12 454.395 601.12C452.571 601.12 451.083 601.792 449.883 603.04ZM484.996 598H490.036L481.156 622H475.348L466.516 598H471.748L475.78 610.48C476.26 612.16 476.692 613.6 477.028 614.8C477.364 616 477.652 617.296 477.94 618.64H478.804C479.092 616.912 479.716 614.512 480.58 611.536C480.628 611.392 480.724 611.056 480.916 610.48L484.996 598ZM510.455 600.64C512.375 602.8 513.383 605.728 513.383 609.472C513.383 610.48 513.335 611.248 513.287 611.728H495.767C495.959 613.984 496.727 615.712 497.975 616.912C499.223 618.16 500.807 618.736 502.727 618.736C504.407 618.736 505.799 618.4 506.855 617.68C507.911 617.008 508.679 615.952 509.255 614.608L512.807 615.76C512.231 617.872 511.031 619.552 509.255 620.752C507.479 622 505.223 622.576 502.439 622.576C498.743 622.576 495.911 621.52 493.895 619.408C491.879 617.296 490.919 614.32 490.919 610.528C490.919 607.984 491.351 605.728 492.311 603.76C493.223 601.792 494.567 600.256 496.343 599.104C498.119 598 500.231 597.424 502.631 597.424C505.895 597.424 508.535 598.528 510.455 600.64ZM498.071 603.04C496.823 604.288 496.103 606.064 495.815 608.368H508.823C508.727 606.112 508.199 604.336 507.143 603.04C506.087 601.792 504.551 601.12 502.583 601.12C500.759 601.12 499.271 601.792 498.071 603.04ZM528.524 621.472C528.14 621.76 527.516 622.048 526.556 622.24C525.596 622.48 524.636 622.576 523.58 622.576C521.708 622.576 520.364 622.144 519.5 621.232C518.636 620.32 518.204 618.88 518.204 616.96V588.16H522.86V616.144C522.86 617.776 523.628 618.592 525.212 618.592C525.98 618.592 526.748 618.4 527.516 617.968L528.524 621.472ZM535.915 621.184C534.091 620.272 532.651 618.88 531.595 617.056C530.539 615.232 530.059 613.024 530.059 610.432C530.059 607.744 530.587 605.392 531.643 603.424C532.699 601.504 534.139 600.016 535.963 598.96C537.787 597.952 539.851 597.424 542.203 597.424C544.459 597.424 546.523 597.904 548.347 598.864C550.171 599.824 551.659 601.264 552.715 603.088C553.771 604.912 554.347 607.12 554.347 609.616C554.347 613.792 553.243 617.008 551.083 619.216C548.875 621.472 545.947 622.576 542.203 622.576C539.803 622.576 537.739 622.144 535.915 621.184ZM547.531 616.432C548.875 614.944 549.547 612.784 549.547 609.952C549.547 607.12 548.875 604.96 547.531 603.424C546.187 601.888 544.411 601.12 542.203 601.12C539.995 601.12 538.219 601.888 536.875 603.424C535.531 604.96 534.907 607.12 534.907 609.952C534.907 612.784 535.531 614.944 536.875 616.432C538.171 617.968 539.947 618.688 542.203 618.688C544.411 618.688 546.187 617.968 547.531 616.432ZM581.487 600.592C583.311 602.704 584.223 605.776 584.223 609.808C584.223 612.496 583.743 614.752 582.831 616.672C581.919 618.592 580.671 620.08 579.135 621.088C577.551 622.096 575.775 622.576 573.855 622.576C571.647 622.576 569.727 622 568.143 620.8C566.511 619.648 565.359 617.92 564.639 615.664H563.823C563.967 618.4 564.063 621.424 564.063 624.688V631.6H559.407V598H563.151L563.919 604.24H564.735C565.455 602.128 566.607 600.448 568.239 599.248C569.823 598.048 571.791 597.424 574.143 597.424C577.215 597.424 579.663 598.48 581.487 600.592ZM577.599 616.288C578.751 614.752 579.375 612.592 579.375 609.856C579.375 604.048 577.071 601.12 572.559 601.12C571.023 601.12 569.727 601.552 568.575 602.32C567.423 603.088 566.511 604.192 565.887 605.536C565.263 606.88 564.975 608.416 564.975 610.048C564.975 612.64 565.647 614.752 566.991 616.288C568.335 617.872 570.159 618.64 572.415 618.64C574.671 618.64 576.399 617.872 577.599 616.288ZM607.111 600.64C609.031 602.8 610.039 605.728 610.039 609.472C610.039 610.48 609.991 611.248 609.943 611.728H592.423C592.615 613.984 593.383 615.712 594.631 616.912C595.879 618.16 597.463 618.736 599.383 618.736C601.063 618.736 602.455 618.4 603.511 617.68C604.567 617.008 605.335 615.952 605.911 614.608L609.463 615.76C608.887 617.872 607.687 619.552 605.911 620.752C604.135 622 601.879 622.576 599.095 622.576C595.399 622.576 592.567 621.52 590.551 619.408C588.535 617.296 587.575 614.32 587.575 610.528C587.575 607.984 588.007 605.728 588.967 603.76C589.879 601.792 591.223 600.256 592.999 599.104C594.775 598 596.887 597.424 599.287 597.424C602.551 597.424 605.191 598.528 607.111 600.64ZM594.727 603.04C593.479 604.288 592.759 606.064 592.471 608.368H605.479C605.383 606.112 604.855 604.336 603.799 603.04C602.743 601.792 601.207 601.12 599.239 601.12C597.415 601.12 595.927 601.792 594.727 603.04ZM631.42 598.864L630.22 603.568C629.884 603.184 629.356 602.8 628.684 602.416C628.012 602.032 627.244 601.84 626.428 601.84C625.084 601.84 623.932 602.368 622.876 603.328C621.82 604.336 620.956 605.776 620.38 607.696C619.804 609.616 619.516 611.92 619.516 614.608V622H614.86V598H618.604L619.084 605.584H619.996C620.284 603.184 621.052 601.264 622.3 599.728C623.5 598.192 625.132 597.424 627.148 597.424C628.876 597.424 630.268 597.904 631.42 598.864Z" fill="black"/>
<path d="M237 671.5C242.371 671.5 247.521 673.633 251.319 677.431C255.117 681.229 257.25 686.379 257.25 691.75C257.25 698.666 253.479 704.328 249.506 708.389C247.52 710.396 245.354 712.216 243.035 713.825L242.076 714.477L241.626 714.776L240.778 715.317L240.022 715.778L239.086 716.322C238.45 716.685 237.732 716.876 237 716.876C236.268 716.876 235.55 716.685 234.914 716.322L233.978 715.778L232.808 715.058L232.376 714.776L231.454 714.162C228.951 712.469 226.621 710.535 224.494 708.389C220.521 704.325 216.75 698.666 216.75 691.75C216.75 686.379 218.883 681.229 222.681 677.431C226.479 673.633 231.629 671.5 237 671.5ZM237 685C236.114 685 235.236 685.175 234.417 685.514C233.598 685.853 232.854 686.35 232.227 686.977C231.6 687.604 231.103 688.348 230.764 689.167C230.425 689.986 230.25 690.864 230.25 691.75C230.25 692.636 230.425 693.514 230.764 694.333C231.103 695.152 231.6 695.896 232.227 696.523C232.854 697.15 233.598 697.647 234.417 697.986C235.236 698.325 236.114 698.5 237 698.5C238.79 698.5 240.507 697.789 241.773 696.523C243.039 695.257 243.75 693.54 243.75 691.75C243.75 689.96 243.039 688.243 241.773 686.977C240.507 685.711 238.79 685 237 685Z" fill="#CED4D7"/>
<path d="M290.64 680.12V697.76C290.64 700.24 291.24 702.08 292.44 703.28C293.667 704.48 295.36 705.08 297.52 705.08C299.653 705.08 301.32 704.48 302.52 703.28C303.747 702.08 304.36 700.24 304.36 697.76V680.12H308V697.72C308 700.04 307.533 702 306.6 703.6C305.667 705.173 304.4 706.347 302.8 707.12C301.227 707.893 299.453 708.28 297.48 708.28C295.507 708.28 293.72 707.893 292.12 707.12C290.547 706.347 289.293 705.173 288.36 703.6C287.453 702 287 700.04 287 697.72V680.12H290.64ZM322.912 708.28C321.072 708.28 319.419 707.96 317.952 707.32C316.512 706.653 315.379 705.747 314.552 704.6C313.726 703.427 313.299 702.08 313.272 700.56H317.152C317.286 701.867 317.819 702.973 318.752 703.88C319.712 704.76 321.099 705.2 322.912 705.2C324.646 705.2 326.006 704.773 326.992 703.92C328.006 703.04 328.512 701.92 328.512 700.56C328.512 699.493 328.219 698.627 327.632 697.96C327.046 697.293 326.312 696.787 325.432 696.44C324.552 696.093 323.366 695.72 321.872 695.32C320.032 694.84 318.552 694.36 317.432 693.88C316.339 693.4 315.392 692.653 314.592 691.64C313.819 690.6 313.432 689.213 313.432 687.48C313.432 685.96 313.819 684.613 314.592 683.44C315.366 682.267 316.446 681.36 317.832 680.72C319.246 680.08 320.859 679.76 322.672 679.76C325.286 679.76 327.419 680.413 329.072 681.72C330.752 683.027 331.699 684.76 331.912 686.92H327.912C327.779 685.853 327.219 684.92 326.232 684.12C325.246 683.293 323.939 682.88 322.312 682.88C320.792 682.88 319.552 683.28 318.592 684.08C317.632 684.853 317.152 685.947 317.152 687.36C317.152 688.373 317.432 689.2 317.992 689.84C318.579 690.48 319.286 690.973 320.112 691.32C320.966 691.64 322.152 692.013 323.672 692.44C325.512 692.947 326.992 693.453 328.112 693.96C329.232 694.44 330.192 695.2 330.992 696.24C331.792 697.253 332.192 698.64 332.192 700.4C332.192 701.76 331.832 703.04 331.112 704.24C330.392 705.44 329.326 706.413 327.912 707.16C326.499 707.907 324.832 708.28 322.912 708.28ZM354.029 701.8H341.869L339.629 708H335.789L345.869 680.28H350.069L360.109 708H356.269L354.029 701.8ZM352.989 698.84L347.949 684.76L342.909 698.84H352.989Z" fill="#CED4D7"/>
<path d="M489 671.5C501.427 671.5 511.5 681.573 511.5 694C511.5 706.427 501.427 716.5 489 716.5C476.573 716.5 466.5 706.427 466.5 694C466.5 681.573 476.573 671.5 489 671.5ZM489 680.5C488.403 680.5 487.831 680.737 487.409 681.159C486.987 681.581 486.75 682.153 486.75 682.75V694C486.75 694.597 486.987 695.169 487.409 695.591L494.159 702.341C494.584 702.751 495.152 702.977 495.742 702.972C496.332 702.967 496.896 702.731 497.313 702.313C497.731 701.896 497.967 701.332 497.972 700.742C497.977 700.152 497.751 699.584 497.341 699.159L491.25 693.069V682.75C491.25 682.153 491.013 681.581 490.591 681.159C490.169 680.737 489.597 680.5 489 680.5Z" fill="#CED4D7"/>
<path d="M556.92 682.24H542.88V691.36C543.493 690.507 544.4 689.813 545.6 689.28C546.8 688.72 548.093 688.44 549.48 688.44C551.693 688.44 553.493 688.907 554.88 689.84C556.267 690.747 557.253 691.933 557.84 693.4C558.453 694.84 558.76 696.373 558.76 698C558.76 699.92 558.4 701.64 557.68 703.16C556.96 704.68 555.853 705.88 554.36 706.76C552.893 707.64 551.067 708.08 548.88 708.08C546.08 708.08 543.813 707.36 542.08 705.92C540.347 704.48 539.293 702.56 538.92 700.16H542.48C542.827 701.68 543.56 702.867 544.68 703.72C545.8 704.573 547.213 705 548.92 705C551.027 705 552.613 704.373 553.68 703.12C554.747 701.84 555.28 700.16 555.28 698.08C555.28 696 554.747 694.4 553.68 693.28C552.613 692.133 551.04 691.56 548.96 691.56C547.547 691.56 546.307 691.907 545.24 692.6C544.2 693.267 543.44 694.187 542.96 695.36H539.52V679.04H556.92V682.24ZM583.541 680.12C586.581 680.12 589.208 680.693 591.421 681.84C593.661 682.96 595.368 684.573 596.541 686.68C597.741 688.787 598.341 691.267 598.341 694.12C598.341 696.973 597.741 699.453 596.541 701.56C595.368 703.64 593.661 705.24 591.421 706.36C589.208 707.453 586.581 708 583.541 708H574.861V680.12H583.541ZM583.541 705C587.141 705 589.888 704.053 591.781 702.16C593.675 700.24 594.621 697.56 594.621 694.12C594.621 690.653 593.661 687.947 591.741 686C589.848 684.053 587.115 683.08 583.541 683.08H578.501V705H583.541ZM601.783 696.96C601.783 694.72 602.236 692.76 603.143 691.08C604.049 689.373 605.289 688.053 606.863 687.12C608.463 686.187 610.236 685.72 612.183 685.72C614.103 685.72 615.769 686.133 617.183 686.96C618.596 687.787 619.649 688.827 620.343 690.08V686.08H624.023V708H620.343V703.92C619.623 705.2 618.543 706.267 617.103 707.12C615.689 707.947 614.036 708.36 612.143 708.36C610.196 708.36 608.436 707.88 606.863 706.92C605.289 705.96 604.049 704.613 603.143 702.88C602.236 701.147 601.783 699.173 601.783 696.96ZM620.343 697C620.343 695.347 620.009 693.907 619.343 692.68C618.676 691.453 617.769 690.52 616.623 689.88C615.503 689.213 614.263 688.88 612.903 688.88C611.543 688.88 610.303 689.2 609.183 689.84C608.063 690.48 607.169 691.413 606.503 692.64C605.836 693.867 605.503 695.307 605.503 696.96C605.503 698.64 605.836 700.107 606.503 701.36C607.169 702.587 608.063 703.533 609.183 704.2C610.303 704.84 611.543 705.16 612.903 705.16C614.263 705.16 615.503 704.84 616.623 704.2C617.769 703.533 618.676 702.587 619.343 701.36C620.009 700.107 620.343 698.653 620.343 697ZM649.054 686.08L635.854 718.32H632.094L636.414 707.76L627.574 686.08H631.614L638.494 703.84L645.294 686.08H649.054ZM660.473 708.36C658.793 708.36 657.286 708.08 655.953 707.52C654.619 706.933 653.566 706.133 652.793 705.12C652.019 704.08 651.593 702.893 651.513 701.56H655.273C655.379 702.653 655.886 703.547 656.793 704.24C657.726 704.933 658.939 705.28 660.433 705.28C661.819 705.28 662.913 704.973 663.713 704.36C664.513 703.747 664.913 702.973 664.913 702.04C664.913 701.08 664.486 700.373 663.633 699.92C662.779 699.44 661.459 698.973 659.673 698.52C658.046 698.093 656.713 697.667 655.673 697.24C654.659 696.787 653.779 696.133 653.033 695.28C652.313 694.4 651.953 693.253 651.953 691.84C651.953 690.72 652.286 689.693 652.953 688.76C653.619 687.827 654.566 687.093 655.793 686.56C657.019 686 658.419 685.72 659.993 685.72C662.419 685.72 664.379 686.333 665.873 687.56C667.366 688.787 668.166 690.467 668.273 692.6H664.633C664.553 691.453 664.086 690.533 663.233 689.84C662.406 689.147 661.286 688.8 659.873 688.8C658.566 688.8 657.526 689.08 656.753 689.64C655.979 690.2 655.593 690.933 655.593 691.84C655.593 692.56 655.819 693.16 656.273 693.64C656.753 694.093 657.339 694.467 658.033 694.76C658.753 695.027 659.739 695.333 660.993 695.68C662.566 696.107 663.846 696.533 664.833 696.96C665.819 697.36 666.659 697.973 667.353 698.8C668.073 699.627 668.446 700.707 668.473 702.04C668.473 703.24 668.139 704.32 667.473 705.28C666.806 706.24 665.859 707 664.633 707.56C663.433 708.093 662.046 708.36 660.473 708.36ZM700.755 701.8H688.595L686.355 708H682.515L692.595 680.28H696.795L706.835 708H702.995L700.755 701.8ZM699.715 698.84L694.675 684.76L689.635 698.84H699.715ZM720.268 685.72C722.162 685.72 723.815 686.133 725.228 686.96C726.668 687.787 727.735 688.827 728.428 690.08V686.08H732.108V708.48C732.108 710.48 731.682 712.253 730.828 713.8C729.975 715.373 728.748 716.6 727.148 717.48C725.575 718.36 723.735 718.8 721.628 718.8C718.748 718.8 716.348 718.12 714.428 716.76C712.508 715.4 711.375 713.547 711.028 711.2H714.628C715.028 712.533 715.855 713.6 717.108 714.4C718.362 715.227 719.868 715.64 721.628 715.64C723.628 715.64 725.255 715.013 726.508 713.76C727.788 712.507 728.428 710.747 728.428 708.48V703.88C727.708 705.16 726.642 706.227 725.228 707.08C723.815 707.933 722.162 708.36 720.268 708.36C718.322 708.36 716.548 707.88 714.948 706.92C713.375 705.96 712.135 704.613 711.228 702.88C710.322 701.147 709.868 699.173 709.868 696.96C709.868 694.72 710.322 692.76 711.228 691.08C712.135 689.373 713.375 688.053 714.948 687.12C716.548 686.187 718.322 685.72 720.268 685.72ZM728.428 697C728.428 695.347 728.095 693.907 727.428 692.68C726.762 691.453 725.855 690.52 724.708 689.88C723.588 689.213 722.348 688.88 720.988 688.88C719.628 688.88 718.388 689.2 717.268 689.84C716.148 690.48 715.255 691.413 714.588 692.64C713.922 693.867 713.588 695.307 713.588 696.96C713.588 698.64 713.922 700.107 714.588 701.36C715.255 702.587 716.148 703.533 717.268 704.2C718.388 704.84 719.628 705.16 720.988 705.16C722.348 705.16 723.588 704.84 724.708 704.2C725.855 703.533 726.762 702.587 727.428 701.36C728.095 700.107 728.428 698.653 728.428 697ZM747.82 708.36C745.766 708.36 743.9 707.893 742.22 706.96C740.566 706.027 739.26 704.707 738.3 703C737.366 701.267 736.9 699.267 736.9 697C736.9 694.76 737.38 692.787 738.34 691.08C739.326 689.347 740.66 688.027 742.34 687.12C744.02 686.187 745.9 685.72 747.98 685.72C750.06 685.72 751.94 686.187 753.62 687.12C755.3 688.027 756.62 689.333 757.58 691.04C758.566 692.747 759.06 694.733 759.06 697C759.06 699.267 758.553 701.267 757.54 703C756.553 704.707 755.206 706.027 753.5 706.96C751.793 707.893 749.9 708.36 747.82 708.36ZM747.82 705.16C749.126 705.16 750.353 704.853 751.5 704.24C752.646 703.627 753.566 702.707 754.26 701.48C754.98 700.253 755.34 698.76 755.34 697C755.34 695.24 754.993 693.747 754.3 692.52C753.606 691.293 752.7 690.387 751.58 689.8C750.46 689.187 749.246 688.88 747.94 688.88C746.606 688.88 745.38 689.187 744.26 689.8C743.166 690.387 742.286 691.293 741.62 692.52C740.953 693.747 740.62 695.24 740.62 697C740.62 698.787 740.94 700.293 741.58 701.52C742.246 702.747 743.126 703.667 744.22 704.28C745.313 704.867 746.513 705.16 747.82 705.16Z" fill="#CED4D7"/>
<defs>
<linearGradient id="paint0_linear_5339_13391" x1="540" y1="0" x2="540" y2="1080" gradientUnits="userSpaceOnUse">
<stop stop-color="#DAEEFC"/>
<stop offset="1" stop-color="#EFF7FA"/>
</linearGradient>
</defs>
</svg>
